<svg width="342" height="274" viewBox="0 0 342 274" fill="none" xmlns="http://www.w3.org/2000/svg">
<g clip-path="url(#clip0)">
<path d="M54.9337 160.291C42.6355 159.46 0 156.939 0 156.939L16.4671 130.151L2.42143 102.766C2.42143 102.766 56.9538 106.38 57.2886 106.402C58.7515 106.488 59.8838 107.712 59.8492 109.19L58.6249 157.691C58.6092 158.428 58.2927 159.121 57.7323 159.633C57.2185 160.099 56.5629 160.352 55.8801 160.352C55.878 160.352 55.5489 160.333 54.9337 160.291Z" fill="#2F3C42"/>
<path d="M287.066 160.292C299.365 159.462 342 156.94 342 156.94L325.533 130.152L339.578 102.766C339.578 102.766 285.046 106.38 284.711 106.402C283.249 106.488 282.117 107.712 282.151 109.19L283.375 157.691C283.391 158.428 283.707 159.121 284.268 159.633C284.781 160.099 285.437 160.352 286.12 160.352C286.12 160.352 286.451 160.333 287.066 160.292Z" fill="#2F3C42"/>
<path d="M25 124L65.6125 108.559L63.4112 127.754L25 124Z" fill="#1E2427"/>
<path d="M317 124L276.387 108.559L278.589 127.754L317 124Z" fill="#1E2427"/>
<path d="M171 0.391113L42.75 46.0632L62.3112 215.407L171 273.391L279.689 215.407L299.25 46.0632L171 0.391113Z" fill="#DD0031"/>
<path d="M171 273.391L279.689 215.407L299.25 46.0632L171 0.391113V273.391Z" fill="#C3002F"/>
<path fill-rule="evenodd" clip-rule="evenodd" d="M60.1044 56.8672L77.243 205.239L171 255.257L264.757 205.239L281.896 56.8672L171 17.3754L60.1044 56.8672ZM171 0.391113L42.75 46.0632L62.3112 215.407L171 273.391L279.689 215.407L299.25 46.0632L171 0.391113Z" fill="#192838"/>
<path fill-rule="evenodd" clip-rule="evenodd" d="M101.531 196.61L171 43.0474L240.469 196.61H214.523L200.533 162.19H141.467L127.477 196.61H101.531ZM191.207 140.973L171 93.0456L150.793 140.973H191.207Z" fill="white"/>
<path d="M171 162.19H200.533L214.523 196.61H240.469L171 43.0474V93.0456L191.207 140.973H171V162.19Z" fill="#B4B4B3"/>
<path d="M224.916 81.4303C227.116 81.7052 229.095 81.1663 230.881 79.8042C232.659 78.4332 233.71 76.633 234.011 74.3862C234.554 70.3262 235.097 66.2668 235.64 62.2068C234.243 62.0049 232.846 61.8094 231.448 61.6213C230.943 65.6818 230.437 69.7427 229.931 73.8036C229.655 75.9859 227.554 77.5976 225.377 77.3262C223.18 77.0513 221.526 74.9841 221.756 72.7824C222.188 68.7126 222.621 64.6427 223.053 60.5728C221.653 60.4116 220.253 60.2577 218.851 60.1099C218.455 64.1882 218.059 68.266 217.663 72.3443C217.444 74.601 218.055 76.6092 219.469 78.3786C220.884 80.1407 222.692 81.1524 224.916 81.4303ZM239.153 83.2682C239.75 82.3225 240.349 81.3787 240.951 80.4354C243.225 80.8071 245.496 81.1976 247.765 81.6069C248.044 82.7016 248.321 83.7962 248.593 84.8913C250.026 85.1543 251.457 85.4252 252.888 85.7036C251.11 78.329 249.188 70.9614 247.124 63.6041C242.9 69.8796 238.809 76.2142 234.854 82.6023C236.288 82.8172 237.721 83.039 239.153 83.2682ZM245.61 73.2151C246.001 74.734 246.386 76.2529 246.765 77.7723C245.538 77.5559 244.311 77.3446 243.082 77.1391C243.92 75.8291 244.762 74.5206 245.61 73.2151Z" fill="#B4B4B3"/>
<path d="M102.592 84.9056C101.372 77.858 100.152 70.8103 98.9322 63.7633C97.4553 64.034 95.9793 64.3121 94.5039 64.597C95.7876 71.6325 97.0714 78.6681 98.3551 85.7036C99.7663 85.4303 101.178 85.1642 102.592 84.9056ZM107.36 84.0844C108.775 83.8404 110.191 83.6038 111.607 83.3735C111.005 79.4478 110.403 75.5215 109.802 71.5958C114.781 74.9501 119.657 78.3853 124.429 81.8965C123.516 74.6343 122.604 67.3721 121.691 60.1099C120.201 60.3082 118.712 60.5133 117.224 60.7264C117.755 64.6631 118.286 68.5998 118.817 72.5366C113.928 69.0878 108.934 65.7177 103.839 62.4306C105.012 69.6487 106.186 76.8668 107.36 84.0844Z" fill="white"/>
<path d="M171 177.415C96.4144 177.415 40.1367 172.241 25.6499 171.117V124.094C41.2233 125.339 97.0463 130.3 171 130.3C241.402 130.3 300.361 125.314 316.35 124.094V171.117C301.413 172.222 241.928 177.415 171 177.415Z" fill="white"/>
<path d="M311.27 130.223V167.924C293.409 169.217 232.478 173.237 171.501 173.237C107.484 173.237 48.0626 169.255 30.7297 167.944V130.246C49.2591 131.684 108.171 135.701 171.501 135.701C231.903 135.701 292.252 131.638 311.27 130.223ZM317 124C317 124 244.884 129.938 171.501 129.938C94.1056 129.938 25 124 25 124V173.273C25 173.273 94.1056 179 171.501 179C244.884 179 317 173.273 317 173.273V124Z" fill="#263238"/>
<path fill-rule="evenodd" clip-rule="evenodd" d="M53.4375 154.186C57.4357 154.428 61.434 154.657 65.4332 154.874C65.5126 153.502 65.592 152.13 65.6714 150.758C61.6814 150.541 57.6913 150.313 53.7023 150.072C53.6142 151.443 53.5261 152.815 53.4375 154.186ZM106.692 154.098C101.939 149.446 97.2221 144.776 92.5418 140.09C92.1943 148.085 91.8467 156.08 91.4992 164.075C93.1474 164.142 94.7956 164.207 96.4438 164.27C96.6209 159.927 96.7981 155.585 96.9752 151.243C101.702 155.923 106.465 160.587 111.265 165.233C111.527 157.23 111.789 149.227 112.052 141.225C110.419 141.175 108.786 141.122 107.154 141.068C107 145.411 106.846 149.755 106.692 154.098ZM127.852 152.006C127.816 153.506 127.78 155.006 127.745 156.506C130.074 156.558 132.405 156.607 134.735 156.651C133.619 158.841 131.112 160.69 127.92 160.619C125.849 160.573 124.11 159.831 122.707 158.397C121.284 156.962 120.603 155.259 120.657 153.288C120.712 151.318 121.487 149.653 122.977 148.291C124.456 146.92 126.216 146.258 128.261 146.304C130.266 146.349 131.992 147.088 133.445 148.525C134.634 147.427 135.821 146.327 137.005 145.227C135.051 143.307 132.094 141.654 128.344 141.57C128.339 141.556 128.335 141.541 128.33 141.526C124.924 141.45 121.997 142.546 119.533 144.822C117.051 147.106 115.752 149.88 115.652 153.151C115.551 156.452 116.679 159.293 119.051 161.668C121.392 164.053 124.3 165.288 127.761 165.365C131.192 165.442 134.16 164.339 136.653 162.062C139.124 159.804 140.679 156.642 140.404 152.248C136.22 152.181 132.036 152.1 127.852 152.006ZM171.437 142.203C165.819 142.201 160.2 142.176 154.582 142.126C154.567 143.685 154.553 145.243 154.538 146.802C156.538 146.819 158.538 146.834 160.538 146.846C160.499 153.115 160.46 159.383 160.421 165.651C162.075 165.661 163.73 165.668 165.384 165.674C165.406 159.405 165.428 153.137 165.451 146.868C167.446 146.875 169.441 146.879 171.436 146.879C171.436 145.32 171.437 143.762 171.437 142.203ZM170.711 165.684C172.493 165.685 174.275 165.684 176.056 165.68C176.608 164.489 177.159 163.298 177.71 162.107C180.514 162.099 183.318 162.085 186.122 162.065C186.685 163.251 187.249 164.435 187.814 165.621C189.601 165.606 191.388 165.59 193.174 165.57C189.336 157.624 185.547 149.666 181.806 141.698C178.156 149.703 174.458 157.699 170.711 165.684ZM184.143 157.911C182.643 157.921 181.143 157.928 179.643 157.934C180.391 156.276 181.137 154.616 181.882 152.957C182.633 154.609 183.387 156.26 184.143 157.911ZM202.058 160.763C201.955 154.5 201.853 148.237 201.751 141.975C200.123 142 198.494 142.022 196.866 142.043C196.973 149.87 197.08 157.696 197.187 165.523C202.134 165.46 207.081 165.378 212.027 165.277C211.993 163.714 211.959 162.151 211.926 160.588C208.637 160.655 205.347 160.713 202.058 160.763ZM232.212 141.271C230.333 141.329 228.454 141.385 226.575 141.437C224.604 144.956 222.621 148.472 220.626 151.985C220.534 148.524 220.442 145.063 220.351 141.602C218.728 141.642 217.105 141.681 215.482 141.717C215.669 149.542 215.855 157.367 216.042 165.192C217.686 165.155 219.329 165.116 220.973 165.075C220.886 161.794 220.799 158.513 220.712 155.232C223.178 158.454 225.657 161.671 228.148 164.884C230.153 164.827 232.157 164.767 234.162 164.704C231.214 160.945 228.283 157.178 225.37 153.406C227.666 149.364 229.947 145.319 232.212 141.271ZM245.032 150.96C243.316 150.54 240.511 150.076 240.432 147.961C240.384 146.659 241.466 145.538 242.824 145.489C244.161 145.44 245.327 146.48 245.379 147.768C246.987 147.377 248.595 146.984 250.202 146.59C249.549 143.13 246.343 140.579 242.61 140.714C238.518 140.863 235.305 144.157 235.439 148.116C235.549 151.312 238.262 153.576 241.284 154.445C242.997 154.949 246.008 155.136 246.095 157.277C246.148 158.579 244.688 159.718 243.325 159.767C243.333 159.774 243.341 159.781 243.348 159.788C241.963 159.838 240.435 158.822 240.387 157.512C238.769 157.901 237.15 158.288 235.529 158.673C236.205 162.15 239.74 164.701 243.548 164.562C247.693 164.413 251.279 161.066 251.106 157.11C250.964 153.844 248.146 151.699 245.032 150.96ZM288.302 150.183C284.313 150.421 280.323 150.645 276.332 150.858C276.41 152.23 276.488 153.602 276.566 154.974C280.565 154.761 284.564 154.535 288.563 154.298C288.476 152.926 288.389 151.555 288.302 150.183Z" fill="#263238"/>
</g>
<defs>
<clipPath id="clip0">
<rect width="342" height="274" fill="white"/>
</clipPath>
</defs>
</svg>
